<svg width="35" height="35" viewBox="0 0 35 35" fill="none" xmlns="http://www.w3.org/2000/svg">
<path d="M27.2714 11.0515C27.2233 11.0515 27.1913 11.0515 27.1432 11.0515H27.0631C24.0341 10.9553 21.7744 8.61548 21.7744 5.73077C21.7744 2.78195 24.1784 0.394043 27.1112 0.394043C30.044 0.394043 32.4479 2.79797 32.4479 5.73077C32.4319 8.63151 30.1722 10.9713 27.2874 11.0675C27.2874 11.0515 27.2874 11.0515 27.2714 11.0515ZM27.1112 2.78195C25.4925 2.78195 24.1783 4.0961 24.1783 5.71475C24.1783 7.30134 25.4124 8.58344 26.999 8.64755C27.015 8.63152 27.1432 8.63152 27.2874 8.64755C28.842 8.56741 30.044 7.28532 30.06 5.71475C30.06 4.0961 28.7458 2.78195 27.1112 2.78195Z" fill="white"/>
<path d="M27.2876 22.8627C26.6626 22.8627 26.0375 22.8146 25.4125 22.7024C24.7554 22.5902 24.3227 21.9652 24.4349 21.3082C24.5471 20.6511 25.1721 20.2184 25.8292 20.3306C27.8004 20.6671 29.8838 20.2985 31.2781 19.369C32.0313 18.8722 32.432 18.2471 32.432 17.6221C32.432 16.9971 32.0153 16.3881 31.2781 15.8913C29.8838 14.9618 27.7684 14.5932 25.7811 14.9458C25.124 15.074 24.499 14.6252 24.3868 13.9682C24.2746 13.3111 24.7074 12.6861 25.3644 12.5739C27.9767 12.1091 30.6851 12.6059 32.6083 13.888C34.0186 14.8336 34.8359 16.1798 34.8359 17.6221C34.8359 19.0485 34.0346 20.4107 32.6083 21.3723C31.1499 22.3338 29.2588 22.8627 27.2876 22.8627Z" fill="white"/>
<path d="M7.99231 11.0514C7.97628 11.0514 7.96025 11.0514 7.96025 11.0514C5.07553 10.9552 2.81583 8.61539 2.7998 5.73067C2.7998 2.78185 5.20374 0.37793 8.13654 0.37793C11.0693 0.37793 13.4733 2.78186 13.4733 5.71465C13.4733 8.6154 11.2136 10.9552 8.32886 11.0514L7.99231 9.84941L8.10449 11.0514C8.07244 11.0514 8.02436 11.0514 7.99231 11.0514ZM8.15257 8.64745C8.24872 8.64745 8.32886 8.64744 8.42502 8.66347C9.85135 8.59936 11.1014 7.31726 11.1014 5.73067C11.1014 4.11203 9.78725 2.79788 8.1686 2.79788C6.54995 2.79788 5.23579 4.11203 5.23579 5.73067C5.23579 7.30124 6.45379 8.56731 8.00833 8.66347C8.02436 8.64744 8.08846 8.64745 8.15257 8.64745Z" fill="white"/>
<path d="M7.9756 22.8627C6.00437 22.8627 4.11328 22.3338 2.65489 21.3723C1.24458 20.4267 0.427246 19.0645 0.427246 17.6221C0.427246 16.1958 1.24458 14.8336 2.65489 13.888C4.57804 12.6059 7.28647 12.1091 9.89875 12.5739C10.5558 12.6861 10.9885 13.3111 10.8764 13.9682C10.7642 14.6252 10.1391 15.074 9.48207 14.9458C7.49482 14.5932 5.39538 14.9618 3.98507 15.8913C3.23184 16.3881 2.83118 16.9971 2.83118 17.6221C2.83118 18.2471 3.24787 18.8722 3.98507 19.369C5.37935 20.2985 7.46276 20.6671 9.43399 20.3306C10.0911 20.2184 10.7161 20.6671 10.8283 21.3082C10.9405 21.9652 10.5077 22.5902 9.85067 22.7024C9.22565 22.8146 8.60062 22.8627 7.9756 22.8627Z" fill="white"/>
<path d="M17.6557 23.0227C17.6076 23.0227 17.5756 23.0227 17.5275 23.0227H17.4473C14.4184 22.9265 12.1587 20.5867 12.1587 17.702C12.1587 14.7531 14.5626 12.3652 17.4954 12.3652C20.4282 12.3652 22.8322 14.7692 22.8322 17.702C22.8161 20.6027 20.5564 22.9425 17.6717 23.0387C17.6717 23.0227 17.6717 23.0227 17.6557 23.0227ZM17.4954 14.7531C15.8768 14.7531 14.5626 16.0673 14.5626 17.6859C14.5626 19.2725 15.7966 20.5546 17.3832 20.6187C17.3993 20.6027 17.5275 20.6027 17.6717 20.6187C19.2263 20.5386 20.4282 19.2565 20.4443 17.6859C20.4443 16.0833 19.1301 14.7531 17.4954 14.7531Z" fill="white"/>
<path d="M17.6547 34.8503C15.7316 34.8503 13.8084 34.3535 12.318 33.3438C10.9077 32.3983 10.0903 31.0521 10.0903 29.6097C10.0903 28.1834 10.8916 26.8051 12.318 25.8596C15.3149 23.8723 20.0106 23.8723 22.9915 25.8596C24.4018 26.8051 25.2191 28.1513 25.2191 29.5937C25.2191 31.02 24.4178 32.3983 22.9915 33.3438C21.501 34.3375 19.5779 34.8503 17.6547 34.8503ZM13.6482 27.8789C12.8949 28.3757 12.4943 29.0007 12.4943 29.6257C12.4943 30.2508 12.911 30.8598 13.6482 31.3566C15.8117 32.815 19.4817 32.815 21.6452 31.3566C22.3985 30.8598 22.7991 30.2347 22.7991 29.6097C22.7991 28.9847 22.3825 28.3757 21.6452 27.8789C19.4977 26.4205 15.8277 26.4365 13.6482 27.8789Z" fill="white"/>
</svg>
