<svg width="31" height="32" viewBox="0 0 31 32" fill="none" xmlns="http://www.w3.org/2000/svg">
<path d="M19.636 31.438H11.1196C3.41222 31.438 0.119213 28.145 0.119213 20.4376V11.9212C0.119213 4.21391 3.41222 0.920898 11.1196 0.920898H19.636C27.3433 0.920898 30.6363 4.21391 30.6363 11.9212V20.4376C30.6363 28.145 27.3433 31.438 19.636 31.438ZM11.1196 3.05C4.57613 3.05 2.24831 5.37781 2.24831 11.9212V20.4376C2.24831 26.9811 4.57613 29.3089 11.1196 29.3089H19.636C26.1794 29.3089 28.5072 26.9811 28.5072 20.4376V11.9212C28.5072 5.37781 26.1794 3.05 19.636 3.05H11.1196Z" fill="white"/>
<path d="M20.3457 14.0503C18.5856 14.0503 17.152 12.6168 17.152 10.8567C17.152 9.09664 18.5856 7.66305 20.3457 7.66305C22.1057 7.66305 23.5393 9.09664 23.5393 10.8567C23.5393 12.6168 22.1057 14.0503 20.3457 14.0503ZM20.3457 9.79215C19.7637 9.79215 19.2811 10.2747 19.2811 10.8567C19.2811 11.4386 19.7637 11.9212 20.3457 11.9212C20.9276 11.9212 21.4102 11.4386 21.4102 10.8567C21.4102 10.2747 20.9276 9.79215 20.3457 9.79215Z" fill="white"/>
<path d="M10.4099 14.0503C8.6498 14.0503 7.21621 12.6168 7.21621 10.8567C7.21621 9.09664 8.6498 7.66305 10.4099 7.66305C12.1699 7.66305 13.6035 9.09664 13.6035 10.8567C13.6035 12.6168 12.1699 14.0503 10.4099 14.0503ZM10.4099 9.79215C9.82791 9.79215 9.34531 10.2747 9.34531 10.8567C9.34531 11.4386 9.82791 11.9212 10.4099 11.9212C10.9918 11.9212 11.4744 11.4386 11.4744 10.8567C11.4744 10.2747 10.9918 9.79215 10.4099 9.79215Z" fill="white"/>
<path d="M15.3778 26.754C11.2615 26.754 7.92591 23.4042 7.92591 19.3021C7.92591 18.0105 8.97627 16.9601 10.2679 16.9601H20.4876C21.7793 16.9601 22.8296 18.0105 22.8296 19.3021C22.8296 23.4042 19.494 26.754 15.3778 26.754ZM10.2679 19.0892C10.1544 19.0892 10.055 19.1886 10.055 19.3021C10.055 22.2403 12.4396 24.6249 15.3778 24.6249C18.3159 24.6249 20.7005 22.2403 20.7005 19.3021C20.7005 19.1886 20.6012 19.0892 20.4876 19.0892H10.2679Z" fill="white"/>
</svg>
