<svg width="38" height="38" viewBox="0 0 38 38" fill="none" xmlns="http://www.w3.org/2000/svg">
<path fill-rule="evenodd" clip-rule="evenodd" d="M6.00005 19.0303C6.00005 15.8132 7.8513 13.5834 10.8757 13.155C10.9125 13.154 10.9473 13.1509 10.9757 13.1415L10.977 13.1413C11.1595 13.1175 11.342 13.0982 11.527 13.086C11.6686 13.0766 11.8117 13.0713 11.9574 13.0713H25.9771C26.2855 13.0713 26.5799 13.0854 26.8603 13.1274C26.9157 13.1375 26.9716 13.1426 27.0274 13.143C29.9558 13.5374 31.7985 15.6321 31.9291 18.6801H28.7821C26.6511 18.6801 24.9266 20.4047 24.9266 22.5359C24.9266 24.6672 26.6511 26.3918 28.7821 26.3918H31.929C31.782 29.8092 29.4769 32.0001 25.9781 32.0001H11.9584C8.34134 32.0001 6.00005 29.6585 6.00005 26.041V19.0303ZM31.9365 24.2886H28.7821C27.8147 24.2886 27.0296 23.5034 27.0296 22.5359C27.0296 21.5685 27.8147 20.7833 28.7821 20.7833H31.9365V24.2886ZM34.0394 19.7317V19.0303C34.0394 14.9484 31.6684 11.9353 27.9729 11.1758C27.7429 10.0429 27.1727 8.99789 26.3416 8.17789L23.8882 5.69608C21.5609 3.38256 17.7756 3.38256 15.4483 5.69608L10.8919 10.2671C10.604 10.5457 10.3592 10.8427 10.1575 11.1501C6.33078 11.8635 3.89709 14.9025 3.89709 19.0303V26.041C3.89709 30.8644 7.13564 34.1033 11.9584 34.1033H25.9781C30.8009 34.1033 34.0394 30.8644 34.0394 26.041V25.3402V19.7317ZM24.8555 9.66415C25.248 10.0567 25.5424 10.4914 25.7247 10.9681H13.1632L16.9204 7.16835C18.4345 5.68208 20.8879 5.68208 22.388 7.16835L24.8555 9.66415Z" fill="white"/>
</svg>
