<svg width="37" height="33" viewBox="0 0 37 33" fill="none" xmlns="http://www.w3.org/2000/svg">
<path d="M33.4628 16.5C35.291 16.5 36.8378 18.0469 36.8378 19.875V28.875C36.8378 30.7734 35.291 32.25 33.4628 32.25H24.4628C22.5644 32.25 21.0878 30.7734 21.0878 28.875V12C21.0878 5.8125 26.08 0.75 32.3378 0.75H32.9003C33.8144 0.75 34.5878 1.52344 34.5878 2.4375V5.8125C34.5878 6.79688 33.8144 7.5 32.9003 7.5H32.3378C29.8066 7.5 27.8378 9.53906 27.8378 12V16.5H33.4628ZM13.2128 16.5C15.041 16.5 16.5878 18.0469 16.5878 19.875V28.875C16.5878 30.7734 15.041 32.25 13.2128 32.25H4.21284C2.3144 32.25 0.837838 30.7734 0.837838 28.875V12C0.837838 5.8125 5.83003 0.75 12.0878 0.75H12.6503C13.5644 0.75 14.3378 1.52344 14.3378 2.4375V5.8125C14.3378 6.79688 13.5644 7.5 12.6503 7.5H12.0878C9.55659 7.5 7.58784 9.53906 7.58784 12V16.5H13.2128Z" fill="#6CB6AD"/>
</svg>
