<svg width="27" height="27" viewBox="0 0 27 27" fill="none" xmlns="http://www.w3.org/2000/svg">
<path d="M7.46634 21.6027C6.98078 21.6027 6.57812 21.2 6.57812 20.7145V18.263C6.57812 17.7774 6.98078 17.3748 7.46634 17.3748C7.9519 17.3748 8.35456 17.7774 8.35456 18.263V20.7145C8.35456 21.2119 7.9519 21.6027 7.46634 21.6027Z" fill="white"/>
<path d="M13.5298 21.6024C13.0443 21.6024 12.6416 21.1997 12.6416 20.7142V15.7994C12.6416 15.3138 13.0443 14.9111 13.5298 14.9111C14.0154 14.9111 14.418 15.3138 14.418 15.7994V20.7142C14.418 21.2116 14.0154 21.6024 13.5298 21.6024Z" fill="white"/>
<path d="M19.5933 21.6025C19.1077 21.6025 18.7051 21.1998 18.7051 20.7142V13.3479C18.7051 12.8624 19.1077 12.4597 19.5933 12.4597C20.0789 12.4597 20.4815 12.8624 20.4815 13.3479V20.7142C20.4815 21.2116 20.0907 21.6025 19.5933 21.6025Z" fill="white"/>
<path d="M19.5937 10.4936C19.1081 10.4936 18.7055 10.091 18.7055 9.60539V7.03547H16.1237C15.6381 7.03547 15.2355 6.63281 15.2355 6.14725C15.2355 5.66169 15.6381 5.25903 16.1237 5.25903H19.5937C20.0792 5.25903 20.4819 5.66169 20.4819 6.14725V9.61723C20.4819 10.1028 20.0911 10.4936 19.5937 10.4936Z" fill="white"/>
<path d="M7.46604 14.8279C7.06338 14.8279 6.7081 14.5555 6.60151 14.1529C6.48308 13.6791 6.76731 13.1936 7.25287 13.0752C11.6111 11.9856 15.4482 9.60518 18.3734 6.20626L18.9181 5.56674C19.2379 5.19961 19.7945 5.15224 20.1735 5.472C20.5406 5.79175 20.588 6.34837 20.2682 6.72735L19.7235 7.36686C16.5614 11.0619 12.3927 13.6318 7.67921 14.8042C7.60816 14.8279 7.5371 14.8279 7.46604 14.8279Z" fill="white"/>
<path d="M17.0827 26.162H9.97697C3.54626 26.162 0.798706 23.4145 0.798706 16.9837V9.87798C0.798706 3.44727 3.54626 0.699707 9.97697 0.699707H17.0827C23.5134 0.699707 26.261 3.44727 26.261 9.87798V16.9837C26.261 23.4145 23.5134 26.162 17.0827 26.162ZM9.97697 2.47615C4.51738 2.47615 2.57514 4.41839 2.57514 9.87798V16.9837C2.57514 22.4433 4.51738 24.3856 9.97697 24.3856H17.0827C22.5423 24.3856 24.4845 22.4433 24.4845 16.9837V9.87798C24.4845 4.41839 22.5423 2.47615 17.0827 2.47615H9.97697Z" fill="white"/>
</svg>
