<svg width="277" height="65" viewBox="0 0 277 65" fill="none" xmlns="http://www.w3.org/2000/svg">
<path d="M45.2003 49.696L43.9229 43.4853C42.9367 38.6275 41.6953 36.8375 38.483 36.8375C36.2914 36.8375 34.6852 38.0058 33.5174 39.5405V36.8375L28.0039 39.5405V39.6861C28.8445 40.3438 29.7571 41.9867 29.6836 45.1656L29.4645 55.3932H35.2346C34.3219 54.6259 33.5174 52.5071 33.5174 49.0008V40.0511C34.43 39.0645 35.3427 38.2972 36.7672 38.3707C38.5565 38.4443 39.25 40.3438 39.8714 43.5949L42.1351 55.3932H47.8677C46.955 54.6619 45.8953 53.2383 45.2018 49.6945L45.2003 49.696Z" fill="white"/>
<path d="M58.6383 36.8389C55.9363 36.8389 53.8918 38.5192 53.1248 39.8707V29.8248L47.6113 32.5278V32.6734C48.4505 33.3312 49.3271 34.9754 49.291 38.1529L49.0719 55.3946L53.0888 53.3119C53.9279 54.1152 55.9003 55.6859 58.5662 55.6859C61.9616 55.6859 66.2712 52.7638 66.2712 46.0064C66.2712 39.8332 62.4735 36.8375 58.6397 36.8375L58.6383 36.8389ZM56.9946 54.3359C55.1318 54.3359 53.8544 53.3133 53.1234 52.6195V40.602C53.7433 39.3601 55.3149 38.1543 56.8475 38.1543C59.7686 38.1543 62.0698 40.9308 62.1058 46.3728C62.1058 51.8522 59.5855 54.3359 56.9932 54.3359H56.9946Z" fill="white"/>
<path d="M83.8361 49.0022V36.8375L78.3226 39.2852V39.4308C79.1632 40.0885 80.0024 41.9145 80.0024 45.0559L79.9288 52.2518C78.9426 53.2744 77.6652 54.0778 76.095 54.0778C73.6123 54.0778 72.5525 52.3239 72.5525 48.0502V36.8361L67.0391 39.2837V39.4294C67.8796 40.0871 68.7188 41.9131 68.7188 45.0545V48.5248C68.7188 53.7114 70.8368 55.6845 74.3793 55.6845C76.5334 55.6845 78.761 54.4066 79.9303 52.9816L79.8942 55.3932H85.6643C84.7517 54.6259 83.839 52.5071 83.839 49.0007L83.8361 49.0022Z" fill="white"/>
<path d="M97.5279 52.3268C93.511 52.3268 90.1877 49.4407 90.1877 45.131C90.1877 44.6925 90.2237 44.2541 90.2612 43.8156H103.041C103.041 39.3227 99.682 36.839 95.7747 36.839C90.5885 36.839 86.3164 40.7838 86.3164 46.3368C86.3164 51.8898 90.4789 55.6889 95.7011 55.6889C100.923 55.6889 104.684 51.4513 104.757 46.5575H104.684C104.136 49.9917 101.36 52.3297 97.5265 52.3297L97.5279 52.3268ZM95.8842 37.2775C97.9287 37.2775 99.3172 38.4833 99.3172 40.054C99.3172 42.1367 98.0023 43.4507 94.242 43.4507H90.2987C90.8466 39.8347 93.0367 37.2775 95.8857 37.2775H95.8842Z" fill="white"/>
<path d="M122.253 49.696L120.975 43.4853C119.989 38.6275 118.748 36.8375 115.534 36.8375C113.342 36.8375 111.736 38.0058 110.568 39.5405V36.8375L105.055 39.5405V39.6861C105.894 40.3438 106.808 41.9867 106.734 45.1656L106.515 55.3932H112.285C111.373 54.6259 110.57 52.5071 110.57 49.0008V40.0511C111.482 39.0645 112.395 38.2972 113.819 38.3707C115.609 38.4443 116.302 40.3438 116.924 43.5949L119.187 55.3932H124.92C124.007 54.6619 122.948 53.2383 122.254 49.6945L122.253 49.696Z" fill="white"/>
<path d="M152.341 49.696L151.173 43.7781C150.187 38.9563 148.8 36.8375 145.477 36.8375C142.811 36.8375 141.168 38.4818 140.182 40.1246C139.489 38.0794 138.064 36.8375 135.581 36.8375C133.28 36.8375 131.309 38.2251 130.141 39.7597V36.8375L124.664 39.5405V39.7236C125.505 40.3813 126.417 41.9881 126.344 45.2031L126.125 55.3946H131.857C130.981 54.6273 130.141 52.5085 130.141 49.0022V40.2342C131.018 39.1381 132.222 38.3347 133.574 38.3347C136.276 38.3347 136.97 40.4174 136.898 44.4718L136.679 55.3946H142.339C141.353 54.6634 140.696 51.9979 140.696 48.3806V43.9973C140.696 42.7194 140.586 41.5496 140.293 40.527C141.17 39.3212 142.119 38.3347 143.579 38.3347C145.66 38.3347 146.391 40.2342 147.012 43.5949L149.276 55.3932H155.008C154.096 54.6619 153.036 53.2383 152.342 49.6945L152.341 49.696Z" fill="white"/>
<path d="M170.93 51.8883C170.163 49.8431 167.534 42.6097 166.548 40.1621C165.491 37.5385 163.455 36.8418 161.777 36.8389C161.059 36.7885 159.124 36.7913 157.507 38.0534C156.177 39.089 155.394 40.7232 155.179 42.9112L155.296 42.9227L155.413 42.9343C155.413 42.9343 155.413 42.9271 155.414 42.9227H158.934C156.776 41.3506 157.305 39.05 157.535 38.3419C157.574 38.3087 157.609 38.2726 157.649 38.2409C157.867 38.0707 158.092 37.9279 158.32 37.8024C159.516 37.6034 160.942 37.9423 161.728 39.1034C162.103 39.6126 162.635 40.8054 163.241 42.353C158.106 43.4896 154.645 45.2406 154.645 49.3685C154.645 53.058 157.383 55.6874 161.18 55.6874C163.92 55.6874 165.598 54.5177 166.803 52.3268L167.826 55.3946H172.901C172.281 54.8465 171.623 53.7143 170.928 51.8883H170.93ZM163.444 53.2037C160.194 53.2037 158.49 50.9926 158.49 47.5598C158.49 44.3261 160.833 43.1737 163.28 42.4511C164.319 45.118 165.571 48.8031 166.62 51.8897C165.78 52.8027 164.576 53.2052 163.444 53.2052V53.2037Z" fill="white"/>
<path d="M177.941 43.8877V36.8375L172.428 39.4669V39.6126C173.268 40.2703 174.181 41.877 174.107 45.092L173.888 55.3932H179.658C178.746 54.6259 177.941 52.5071 177.941 49.0007V45.5665C177.977 41.9866 181.703 40.5256 184.55 41.0001L185.427 36.8361C181.117 37.3106 178.672 39.6126 177.941 43.8862V43.8877Z" fill="white"/>
<path d="M196.566 42.4265C199.596 39.2851 202.627 37.3495 203.43 37.1303H196.163C196.492 37.4591 196.857 38.0433 196.857 39.1034C196.857 40.2356 196.419 41.8424 194.556 44.0708C192.292 46.7377 190.613 50.0623 189.7 52.582L192.109 29.8248L186.157 32.747V32.8927C186.705 33.2576 187.873 34.7187 187.837 38.2625L187.691 49.6959C187.655 53.0926 186.669 54.6994 186.012 55.3946H193.643C192.803 54.2249 192.256 52.7652 192.219 51.0113C192.219 49.331 192.986 47.1401 193.898 45.8247L196.419 50.244C197.55 52.2892 197.843 53.9696 197.696 55.3946H204.086C203.612 54.7744 202.698 53.6782 201.603 51.6315L196.564 42.4265H196.566Z" fill="white"/>
<path d="M214.347 52.3268C210.33 52.3268 207.008 49.4407 207.008 45.131C207.008 44.6925 207.045 44.2541 207.082 43.8156H219.862C219.862 39.3227 216.503 36.839 212.595 36.839C207.411 36.839 203.139 40.7838 203.139 46.3368C203.139 51.8898 207.301 55.6889 212.523 55.6889C217.746 55.6889 221.506 51.4513 221.579 46.5575H221.506C220.958 49.9917 218.182 52.3297 214.349 52.3297L214.347 52.3268ZM212.704 37.2775C214.748 37.2775 216.137 38.4833 216.137 40.054C216.137 42.1367 214.822 43.4507 211.061 43.4507H207.118C207.666 39.8347 209.858 37.2775 212.705 37.2775H212.704Z" fill="white"/>
<path d="M227.056 32.199H226.837C226.108 34.3538 223.404 36.5462 220.959 37.0568V37.3121H223.187V47.394C223.187 53.2384 226.144 55.3932 230.161 55.3932V55.174C228.371 54.9187 227.056 52.7638 227.056 47.7589V37.3121H230.161V36.9471H227.056V32.199Z" fill="white"/>
<path d="M236.076 49.0022V36.8375L230.562 39.5405V39.6861C231.403 40.3438 232.316 41.9867 232.242 45.1656L232.023 55.3932H237.793C236.881 54.6259 236.077 52.5071 236.077 49.0008L236.076 49.0022Z" fill="white"/>
<path d="M233.812 35.2308C235.309 35.2308 236.368 34.0985 236.368 32.6374C236.368 31.1763 235.31 30.0081 233.812 30.0081C232.314 30.0081 231.184 31.2139 231.184 32.6374C231.184 34.061 232.351 35.2308 233.812 35.2308Z" fill="white"/>
<path d="M255.577 49.696L254.299 43.4853C253.313 38.6275 252.072 36.8375 248.858 36.8375C246.666 36.8375 245.06 38.0058 243.892 39.5405V36.8375L238.379 39.5405V39.6861C239.218 40.3438 240.132 41.9867 240.059 45.1656L239.839 55.3932H245.61C244.697 54.6259 243.892 52.5071 243.892 49.0008V40.0511C244.805 39.0645 245.718 38.2972 247.142 38.3707C248.931 38.4443 249.625 40.3438 250.246 43.5949L252.51 55.3932H258.243C257.33 54.6619 256.27 53.2383 255.577 49.6945V49.696Z" fill="white"/>
<path d="M276.281 34.2803H272.154L270.877 38.4443C269.562 37.4577 267.882 36.8736 265.911 36.8375C261.091 36.7279 257.184 39.979 257.33 44.9464C257.439 49.1479 260.287 52.1061 264.195 52.1061C264.991 52.1061 265.81 51.9705 266.595 51.7354C266.771 51.7614 266.951 51.7802 267.137 51.7802C267.517 51.7802 267.915 51.7196 268.329 51.584C267.47 52.4811 266.288 53.2744 264.707 54.0432C260.18 56.3077 256.199 58.0976 256.199 61.6775C256.199 63.6506 257.769 64.9285 259.74 64.9285C264.451 64.9285 268.248 59.5587 274.566 59.2298V54.0057C266.716 57.512 264.562 63.8323 261.567 64.0876C260.728 64.2333 260.18 63.3203 260.216 62.2616C260.326 59.3019 264.014 55.2836 267.592 52.8735C271.573 50.1705 273.618 47.7229 273.69 44.1069C273.726 42.0256 272.813 39.9429 271.024 38.5914C272.63 36.9472 274.31 35.7053 276.282 34.3913V34.2817L276.281 34.2803ZM268.798 51.0402C267.959 51.4657 267.177 51.535 266.482 51.4095C262.813 50.0739 260.689 45.9185 260.689 41.9881C260.689 39.7237 261.638 37.677 263.684 37.4952C267.189 37.1303 270.147 42.0617 270.183 46.481C270.183 48.3402 269.765 49.7955 268.798 51.0402Z" fill="white"/>
<path d="M25.5946 48.9762V36.9485C25.6062 36.9399 25.6177 36.9312 25.6292 36.9226C26.9168 35.9389 28.3269 34.9307 29.4342 33.7437C30.6784 32.4095 32.214 30.921 32.8628 29.1787C32.9421 28.9652 33.3991 28.0508 33.0401 27.5935C33.5203 26.8969 34.0768 26.2738 34.8597 25.707C35.9901 24.8891 37.1176 24.5531 37.8255 24.5271C38.5709 24.4997 38.9198 24.6757 39.0582 24.5026C39.2947 24.204 38.0937 23.5507 35.7363 24.8675C34.394 25.6175 33.4784 26.7007 32.9378 27.494C32.8628 27.4363 32.7662 27.3916 32.6451 27.3642C32.6206 27.3584 32.5975 27.3599 32.573 27.357C32.8815 26.5695 33.2795 25.8368 33.911 25.1069C34.8236 24.0526 35.8343 23.4237 36.5279 23.2781C37.2949 23.118 37.6265 23.1728 37.7217 22.9708C37.8846 22.6261 36.5639 22.2641 34.5713 24.0872C33.4092 25.1502 32.7619 26.4512 32.4245 27.3498C31.9963 27.3829 31.6156 27.7782 31.3763 28.169C31.0014 28.782 30.664 29.4166 30.3194 30.0469C29.6894 31.195 29.0189 32.3143 28.2158 33.3355C28.138 33.435 27.9823 33.3412 28.0342 33.2259C28.1798 32.9057 28.3269 32.584 28.4725 32.2638C28.4725 32.2609 28.4739 32.2595 28.4754 32.2566C28.4999 32.2119 28.5244 32.1672 28.5489 32.1239C28.5489 32.121 28.5518 32.1196 28.5532 32.1167C29.0132 31.1301 29.5207 30.1652 29.8999 29.1412C30.8241 26.6474 31.4787 24.0814 31.9689 21.4694C32.3538 19.4155 32.684 17.3573 32.8181 15.2702C32.9565 13.1139 32.9248 10.9331 32.5153 8.8042C32.4216 8.31525 32.3062 7.82918 32.1664 7.35032C31.5392 5.18826 30.4031 3.10552 28.7291 1.57664C27.6651 0.604507 25.462 -0.971968 24.3662 0.807877C23.8962 1.57087 23.8154 2.61801 23.7116 3.48486C23.6049 4.37622 23.5011 5.26903 23.3469 6.15462C23.256 6.67098 23.1162 7.721 22.4082 7.70081C21.8978 7.68639 21.3975 7.57677 20.89 7.53927C19.2478 7.41955 17.1096 7.70946 16.7073 9.63787C16.5833 10.2321 16.5588 10.8177 16.7246 11.4062C16.7391 11.4567 16.7924 11.5187 16.7246 11.5591C16.6598 11.5966 16.6237 11.523 16.5848 11.4898C15.7197 10.7744 14.8388 10.0792 13.8843 9.48642C11.7432 8.1537 9.51704 7.0056 7.03858 6.42722C5.58235 6.08683 4.11892 5.97577 2.63962 6.26424C1.25405 6.5354 0.205853 7.39936 0.038603 8.85035C-0.255526 11.4148 1.16177 14.4279 3.24518 15.9019C4.40872 16.7255 5.53477 17.6198 6.63487 18.5284C7.3428 19.1126 8.6534 20.1943 8.16751 21.2617C7.91375 21.8199 7.18997 22.1343 6.67236 22.3607C5.78132 22.7502 4.83838 23.0761 4.14343 23.7886C3.15435 24.8012 2.88617 25.9997 3.26825 27.3469C3.77721 29.144 4.87154 30.5503 6.26577 31.746C6.4013 31.8629 6.54836 31.9681 6.7084 32.085C6.77617 32.134 6.76319 32.2393 6.68533 32.2696C6.24847 32.4441 5.8462 32.6028 5.45403 32.7903C4.37556 33.3081 3.39225 33.9571 2.61079 34.8745C0.892153 36.8923 0.916664 39.4337 2.66558 41.4342C4.07134 43.041 5.86495 43.8285 7.97287 43.9742C8.78893 44.0304 9.60499 44.0059 10.4182 43.9194C10.4427 44.267 10.4557 44.6333 10.4557 45.0213V48.4973C10.4557 53.6926 12.5766 55.6672 16.1234 55.6672C18.2818 55.6672 20.5123 54.3864 21.6816 52.9599L21.6455 55.3744H27.4228C26.5087 54.6056 25.5946 52.484 25.5946 48.9719V48.9762ZM22.7903 9.64652C24.6056 9.80518 25.4591 7.73975 25.5845 6.26424C25.6509 5.48394 25.6768 2.27906 26.9297 2.20983C27.3435 2.18675 27.7963 2.4882 28.1034 2.73772C29.7369 4.06468 31.173 5.97577 31.8175 8.00082C32.028 8.66141 32.1376 9.34363 32.2169 10.0287C32.4533 12.048 32.4447 14.0702 32.2644 16.0952C32.0756 18.214 31.6964 20.2996 31.2854 22.3824C30.6338 25.6839 29.6548 28.8743 28.1481 31.8917V31.8946C28.0991 31.9883 27.9578 31.9638 27.9462 31.8585C27.903 31.4907 27.8813 31.1273 27.8237 30.7652C27.5699 29.196 27.208 27.6498 26.7438 26.1296C25.6869 22.6651 24.0029 19.5337 21.745 16.7053C20.4142 15.038 18.5802 12.9812 18.5932 10.7038C18.6062 8.36284 21.5201 9.53402 22.7932 9.64508L22.7903 9.64652ZM21.6816 52.2315C20.6939 53.2556 19.4136 54.0604 17.842 54.0604C15.3549 54.0604 14.2952 52.3051 14.2952 48.0242V43.0669C16.543 42.3357 18.7114 41.2597 20.7098 40.1375C21.2923 41.0823 21.7565 42.689 21.7565 45.0242L21.683 52.2315H21.6816ZM20.2772 39.5779C18.3784 40.6135 16.357 41.4457 14.2938 41.9852V36.7928L8.77163 39.2433V39.389C9.36998 39.8577 9.96689 40.9236 10.2625 42.6313C9.85443 42.653 9.44784 42.6616 9.03981 42.6544C7.63837 42.6285 6.25568 42.1828 5.13539 41.3332C4.47937 40.8356 3.76856 40.1231 3.37783 39.314C3.13272 38.8077 3.01305 38.2639 3.10821 37.7101C3.29997 36.598 4.03385 35.7456 4.90326 35.0749C5.85485 34.3408 6.94486 33.6182 8.03775 33.1206C8.13147 33.0787 8.20644 33.047 8.31458 33.1033C10.721 34.3509 13.4503 35.049 16.1148 35.4773C18.4692 35.8567 20.8338 36.0153 23.2142 35.7687C23.8154 35.7024 24.4124 35.6072 24.9977 35.4572C25.5629 35.3129 26.1166 35.1384 26.5765 34.7562C27.0249 34.3855 27.1878 33.8865 27.0119 33.3932C26.9052 33.0932 26.6962 32.8653 26.4554 32.6662C26.0128 32.3013 25.5067 32.046 24.9833 31.8225C23.1061 31.0191 21.1193 30.7696 19.1051 30.6672C17.9776 30.6095 16.8501 30.634 15.724 30.6917C14.4221 30.7595 13.1172 30.8056 11.8225 30.9787C10.7815 31.1186 9.7535 31.322 8.74279 31.609C8.65484 31.6335 8.56978 31.658 8.47894 31.5902C7.93394 31.1893 7.40768 30.7638 6.92756 30.2893C6.45176 29.8176 6.09564 29.2479 5.70202 28.7085C5.26515 28.1099 5.05177 27.4349 5.0013 26.7036C4.78215 23.4944 10.1961 23.4742 9.89047 20.4165C9.56318 17.151 6.00769 15.5356 3.91706 13.5105C3.10533 12.723 1.96918 11.7595 1.96486 10.5235C1.96053 9.16045 3.33169 8.30948 4.51686 8.09745C6.00624 7.83206 7.536 7.89841 8.94897 8.46958C11.289 9.41575 13.4662 10.6677 15.5351 12.1057C17.1082 13.199 18.5456 14.461 19.9601 15.7505C20.828 16.5423 21.6571 17.376 22.3405 18.3265C23.9481 20.5564 25.1837 22.9853 26.056 25.5959C26.565 27.1176 26.9326 28.6767 27.2397 30.2503C27.3897 31.0176 27.5122 31.7951 27.518 32.5783C27.5209 32.8667 27.5094 33.1552 27.4704 33.4422C27.4315 33.7307 27.2931 33.9802 27.172 34.2398C27.0422 34.5196 26.8879 34.7937 26.6587 35.0043C26.4395 35.2076 26.2161 35.4067 25.9897 35.6028C25.0121 36.448 23.9495 37.2572 22.8293 38.0115C22.0074 38.5654 21.1553 39.0904 20.2729 39.5707L20.2772 39.5779ZM9.92508 32.2984C10.1154 32.2249 10.3475 32.1109 10.4138 32.0864C11.2717 31.7734 12.1455 31.4806 13.0552 31.3595C13.9895 31.2354 14.9325 31.2196 15.8725 31.1792C17.5248 31.11 19.1743 31.1071 20.8194 31.3003C22.3736 31.4821 23.8875 31.8109 25.2991 32.5162C25.7042 32.7196 26.0993 32.9446 26.3934 33.3023C26.6746 33.6427 26.6544 33.9874 26.3444 34.3018C26.1497 34.4994 25.9104 34.6307 25.6552 34.7302C24.5695 35.1543 23.4276 35.2913 22.2799 35.3605C20.4863 35.4687 18.6855 35.3533 16.9063 35.1023C15.6332 34.9221 14.4134 34.4951 13.2283 34.0105C12.1036 33.5504 10.9776 33.0773 9.9121 32.4917C9.8328 32.4484 9.84001 32.3316 9.92508 32.2984Z" fill="white"/>
</svg>
