<svg width="1124" height="712" viewBox="0 0 1124 712" fill="none" xmlns="http://www.w3.org/2000/svg">
<path d="M518.674 0C541.318 0 559.674 18.3563 559.674 41V270.43C559.674 291.969 577.135 309.43 598.674 309.43H1083.43C1105.84 309.43 1124 327.594 1124 350H1123L1124 350.004L1123.15 567.698C1123.1 581.132 1112.19 591.995 1098.76 591.995C1086.39 591.995 1076.37 602.021 1076.37 614.388V670.615C1076.37 693.259 1058.01 711.615 1035.37 711.615H606.549C583.905 711.615 565.549 693.259 565.549 670.615V572.135C565.549 550.596 548.088 533.135 526.549 533.135H93.459C71.92 533.135 54.4591 550.596 54.459 572.135V612.076C54.4587 632.212 38.1357 648.535 18 648.535V646.535C37.0311 646.535 52.4587 631.107 52.459 612.076V572.135C52.4591 549.491 70.8154 531.135 93.459 531.135H526.549C549.192 531.135 567.549 549.491 567.549 572.135V670.615C567.549 692.154 585.01 709.615 606.549 709.615H1035.37C1056.91 709.615 1074.37 692.154 1074.37 670.615V614.388C1074.37 600.916 1085.29 589.995 1098.76 589.995C1111.09 589.995 1121.1 580.023 1121.15 567.69L1122 350C1122 328.698 1104.73 311.43 1083.43 311.43H598.674C576.03 311.43 557.674 293.073 557.674 270.43V41C557.674 19.4609 540.213 2 518.674 2H76.0859C54.5468 2 37.0859 19.4609 37.0859 41V119.273C37.0857 139.755 20.4816 156.358 0 156.358V154.358C19.3771 154.358 35.0857 138.65 35.0859 119.273V41C35.0859 18.3563 53.4423 0 76.0859 0H518.674Z" fill="#6CB6AD"/>
</svg>
